# xmcd CD database file
#
# Track frame offsets:
#	150
#	27065
#	53668
#	70410
#	82833
#	102420
#	126928
#	153228
#	173167
#	203968
#	234853
#	259657
#
# Disc length: 3824 seconds
#
# Revision: 3
# Processed by: cddbd v1.5.2PL0 Copyright (c) Steve Scherf et al.
# Submitted via: CDex 1.51
#
DISCID=930eee0c
DTITLE=not listed - Spiritlands
DYEAR=2002
DGENRE=New Age
TTITLE0=Blue Mist
TTITLE1=Prairie Daughter
TTITLE2=Song of Red Fox
TTITLE3=Buffalo Dance
TTITLE4=The Gathering Clouds
TTITLE5=Coyote Warrior
TTITLE6=Song of the Wild Cat
TTITLE7=Rain Chant
TTITLE8=Raging Storm
TTITLE9=Song of the Earth Maker
TTITLE10=Kisaka (Rejoice)
TTITLE11=Cheyenne Chief
EXTD=YEAR: 2002
EXTT0=
EXTT1=
EXTT2=
EXTT3=
EXTT4=
EXTT5=
EXTT6=
EXTT7=
EXTT8=
EXTT9=
EXTT10=
EXTT11=
PLAYORDER=
